<?xml version="1.0" standalone="no"?><!DOCTYPE svg PUBLIC "-//W3C//DTD SVG 1.1//EN" "http://www.w3.org/Graphics/SVG/1.1/DTD/svg11.dtd"><svg t="1700203925884" class="icon" viewBox="0 0 1024 1024" version="1.1" xmlns="http://www.w3.org/2000/svg" p-id="37459" xmlns:xlink="http://www.w3.org/1999/xlink" width="32" height="32"><path d="M800 64h-576A160.192 160.192 0 0 0 64 224v576c0 36.544 20.288 69.504 53.056 85.824A95.872 95.872 0 0 0 217.6 876.8l119.488-89.536c16.448-12.48 36.928-19.264 57.6-19.264H800c88.256 0 160-71.744 160-160v-384C960 135.808 888.256 64 800 64zM896 608c0 52.928-43.072 96-96 96H394.688c-34.432 0-68.48 11.392-96 32L179.2 825.536a31.68 31.68 0 0 1-33.536 3.072A31.424 31.424 0 0 1 128 800v-576C128 171.072 171.072 128 224 128h576c52.928 0 96 43.072 96 96v384z" fill="#231815" p-id="37460"></path><path d="M289.28 320a32 32 0 0 0 0-64h-0.64c-17.664 0-31.68 14.336-31.68 32s14.656 32 32.32 32zM737.28 256h-0.64c-17.664 0-31.68 14.336-31.68 32s14.656 32 32.32 32a32 32 0 0 0 0-64zM711.936 394.944a265.6 265.6 0 0 1-399.872 0 32 32 0 1 0-48.128 42.112 329.6 329.6 0 0 0 496.064 0 32 32 0 1 0-48.064-42.112z" fill="#231815" p-id="37461"></path></svg>